2015035_C4_03_grf
version=1
nRows=12
nColumns=19
inDegrees=no
endheader
time	ground_force_1_vx	ground_force_1_vy	ground_force_1_vz	ground_force_1_px	ground_force_1_py	ground_force_1_pz	ground_force_1_mx	ground_force_1_my	ground_force_1_mz	ground_force_2_vx	ground_force_2_vy	ground_force_2_vz	ground_force_2_px	ground_force_2_py	ground_force_2_pz	ground_force_2_mx	ground_force_2_my	ground_force_2_mz
      0.44700000	    -13.33387895	    643.46555620	     33.89828056	      0.20995739	      0.00000000	     -0.30581565	      0.00000000	     -0.13873902	      0.00000000	      0.00000000	      0.00000000	      0.00000000	      0.00000000	      0.00000000	      0.00000000	      0.00000000	      0.00000000	      0.00000000
      0.44800000	    -12.77074590	    644.74768937	     34.09837335	      0.21008259	      0.00000000	     -0.30581352	      0.00000000	     -0.14719619	      0.00000000	      0.00000000	      0.00000000	      0.00000000	      0.00000000	      0.00000000	      0.00000000	      0.00000000	      0.00000000	      0.00000000
      0.44900000	    -12.20173948	    646.05157822	     34.30602886	      0.21020556	      0.00000000	     -0.30581107	     -0.00000000	     -0.15456148	      0.00000000	      0.00000000	      0.00000000	      0.00000000	      0.00000000	      0.00000000	      0.00000000	      0.00000000	      0.00000000	      0.00000000
      0.45000000	    -11.62828598	    647.37312496	     34.51943770	      0.21032679	      0.00000000	     -0.30580830	      0.00000000	     -0.16107006	      0.00000000	      0.00000000	      0.00000000	      0.00000000	      0.00000000	      0.00000000	      0.00000000	      0.00000000	      0.00000000	      0.00000000
      0.45100000	    -11.04961475	    648.71709794	     34.73963030	      0.21044592	      0.00000000	     -0.30580502	      0.00000000	     -0.16654028	      0.00000000	      0.00000000	      0.00000000	      0.00000000	      0.00000000	      0.00000000	      0.00000000	      0.00000000	      0.00000000	      0.00000000
      0.45200000	    -10.46705525	    650.07925034	     34.96488333	      0.21056342	      0.00000000	     -0.30580129	     -0.00000000	     -0.17121148	      0.00000000	      0.00000000	      0.00000000	      0.00000000	      0.00000000	      0.00000000	      0.00000000	      0.00000000	      0.00000000	      0.00000000
      0.45300000	     -9.88000119	    651.46438777	     35.19596681	      0.21067895	      0.00000000	     -0.30579690	      0.00000000	     -0.17493149	      0.00000000	      0.00000000	      0.00000000	      0.00000000	      0.00000000	      0.00000000	      0.00000000	      0.00000000	      0.00000000	      0.00000000
      0.45400000	     -9.28964932	    652.86822617	     35.43129042	      0.21079295	      0.00000000	     -0.30579194	     -0.00000000	     -0.17793322	      0.00000000	      0.00000000	      0.00000000	      0.00000000	      0.00000000	      0.00000000	      0.00000000	      0.00000000	      0.00000000	      0.00000000
      0.45500000	     -8.69554793	    654.29579467	     35.67134701	      0.21090509	      0.00000000	     -0.30578623	     -0.00000000	     -0.18009529	      0.00000000	      0.00000000	      0.00000000	      0.00000000	      0.00000000	      0.00000000	      0.00000000	      0.00000000	      0.00000000	      0.00000000
      0.45600000	     -8.09873920	    655.74266016	     35.91471165	      0.21101580	      0.00000000	     -0.30577991	      0.00000000	     -0.18163616	     -0.00000000	      0.00000000	      0.00000000	      0.00000000	      0.00000000	      0.00000000	      0.00000000	      0.00000000	      0.00000000	      0.00000000
      0.45700000	     -7.49889808	    657.21403807	     36.16159335	      0.21112476	      0.00000000	     -0.30577279	      0.00000000	     -0.18246792	      0.00000000	      0.00000000	      0.00000000	      0.00000000	      0.00000000	      0.00000000	      0.00000000	      0.00000000	      0.00000000	      0.00000000
      0.45800000	     -6.89690188	    658.70545805	     36.41077504	      0.21123236	      0.00000000	     -0.30576498	      0.00000000	     -0.18278827	     -0.00000000	      0.00000000	      0.00000000	      0.00000000	      0.00000000	      0.00000000	      0.00000000	      0.00000000	      0.00000000	      0.00000000
